# xmcd
#
# Track frame offsets:
# 150
# 21978
# 38862
# 59652
# 79137
# 94131
# 114737
# 139191
# 154400
# 173922
# 191951
# 209797
# 227023
# 244540
# 269084
# 288025
#
# Disc length: 4147 seconds
#
#
# Revision: 0
# Processed by: cddbd v1.5.1PL2 Copyright (c) Steve Scherf et al.
# Submitted via: FreeRIP 2.944 
#
DISCID=f6103110
DTITLE=Rodney Crowell - The Essential Rodney Crowell
DYEAR=2004
DGENRE=Country
TTITLE0=I Ain't Living Long Like This
TTITLE1=Stars on the water
TTITLE2=Shame On The Moon
TTITLE3=Oh , King Richard
TTITLE4=I Couldn't Leave You if I Tried
TTITLE5=After All This Time
TTITLE6=Last Waltz
TTITLE7=She's Crazy For Leaving
TTITLE8=Many A Long and Lonesome Highway
TTITLE9=What Kind Of Love
TTITLE10=Lovin' All Night
TTITLE11=Please Remember Me
TTITLE12=I Walk The Line (Revisited)
TTITLE13=Fate's Right Hand
TTITLE14=Still Learning How To Fly
TTITLE15=Til I Gain Control Again
EXTD=
EXTT0=
EXTT1=
EXTT2=
EXTT3=
EXTT4=
EXTT5=
EXTT6=
EXTT7=
EXTT8=
EXTT9=
EXTT10=
EXTT11=
EXTT12=
EXTT13=
EXTT14=
EXTT15=
PLAYORDER=
